<svg width="50" height="50" viewBox="0 0 50 50" fill="none" xmlns="http://www.w3.org/2000/svg">
<g clip-path="url(#clip0_5346_10996)">
<path d="M29.1663 20.8333V6.79167C27.8122 6.4375 26.4163 6.25 24.9997 6.25C16.2497 6.25 8.33301 12.9583 8.33301 23.3333C8.33301 29.9583 13.4372 37.75 23.6247 46.7292C24.4163 47.4167 25.6038 47.4167 26.3955 46.7292C36.5622 37.75 41.6663 29.9583 41.6663 23.3333C41.6663 22.4792 41.583 21.6458 41.4788 20.8333H29.1663ZM24.9997 27.0833C22.708 27.0833 20.833 25.2083 20.833 22.9167C20.833 20.625 22.708 18.75 24.9997 18.75C27.2913 18.75 29.1663 20.625 29.1663 22.9167C29.1663 25.2083 27.2913 27.0833 24.9997 27.0833Z" fill="#EB1212"/>
<path d="M46.958 5.99984L43.9997 3.0415L39.583 7.479L35.1663 3.0415L32.208 5.99984L36.6455 10.4165L32.208 14.8332L35.1663 17.7915L39.583 13.354L43.9997 17.7915L46.958 14.8332L42.5205 10.4165L46.958 5.99984Z" fill="#EB1212"/>
</g>
<defs>
<clipPath id="clip0_5346_10996">
<rect width="50" height="50" fill="white"/>
</clipPath>
</defs>
</svg>
