<svg width="25" height="24" viewBox="0 0 25 24" fill="none" xmlns="http://www.w3.org/2000/svg">
<g clip-path="url(#clip0_5435_5902)">
<path d="M18.8398 16V11C18.8398 7.93 17.1998 5.36 14.3398 4.68V4C14.3398 3.17 13.6598 2.5 12.8298 2.5C11.9998 2.5 11.3398 3.17 11.3398 4V4.68C8.46982 5.36 6.83982 7.92 6.83982 11V16L5.53982 17.29C4.90982 17.92 5.34982 19 6.23982 19H19.4098C20.2998 19 20.7498 17.92 20.1198 17.29L18.8398 16ZM12.8298 22C13.9298 22 14.8298 21.1 14.8298 20H10.8298C10.8298 21.1 11.7198 22 12.8298 22ZM7.60982 4.73C8.02982 4.35 8.03982 3.7 7.63982 3.3C7.25982 2.92 6.63982 2.91 6.24982 3.28C4.53982 4.84 3.35982 6.96 2.97982 9.34C2.88982 9.95 3.35982 10.5 3.97982 10.5C4.45982 10.5 4.87982 10.15 4.95982 9.67C5.25982 7.73 6.21982 6 7.60982 4.73ZM19.4398 3.28C19.0398 2.91 18.4198 2.92 18.0398 3.3C17.6398 3.7 17.6598 4.34 18.0698 4.72C19.4498 5.99 20.4198 7.72 20.7198 9.66C20.7898 10.14 21.2098 10.49 21.6998 10.49C22.3098 10.49 22.7898 9.94 22.6898 9.33C22.3098 6.96 21.1398 4.85 19.4398 3.28Z" fill="#919191"/>
</g>
<defs>
<clipPath id="clip0_5435_5902">
<rect width="24" height="24" fill="white" transform="translate(0.839844)"/>
</clipPath>
</defs>
</svg>
