<svg width="225" height="210" viewBox="0 0 225 210" fill="none" xmlns="http://www.w3.org/2000/svg">
<path d="M0 7.5C0 5.51088 0.790176 3.60322 2.1967 2.1967C3.60322 0.790178 5.51088 0 7.5 0H30C31.673 0.000462172 33.2978 0.56026 34.616 1.59037C35.9342 2.62048 36.8701 4.06176 37.275 5.685L43.35 30H217.5C218.639 30.0003 219.763 30.2602 220.787 30.7598C221.811 31.2594 222.708 31.9857 223.409 32.8836C224.11 33.7814 224.598 34.8272 224.834 35.9416C225.071 37.056 225.051 38.2096 224.775 39.315L202.275 129.315C201.87 130.938 200.934 132.38 199.616 133.41C198.298 134.44 196.673 135 195 135H60C58.327 135 56.7022 134.44 55.384 133.41C54.0658 132.38 53.1299 130.938 52.725 129.315L24.15 15H7.5C5.51088 15 3.60322 14.2098 2.1967 12.8033C0.790176 11.3968 0 9.48912 0 7.5ZM47.1 45L54.6 75H75V45H47.1ZM90 45V75H120V45H90ZM135 45V75H165V45H135ZM180 45V75H200.4L207.9 45H180ZM196.65 90H180V120H189.15L196.65 90ZM165 90H135V120H165V90ZM120 90H90V120H120V90ZM75 90H58.35L65.85 120H75V90ZM75 165C71.0218 165 67.2064 166.58 64.3934 169.393C61.5804 172.206 60 176.022 60 180C60 183.978 61.5804 187.794 64.3934 190.607C67.2064 193.42 71.0218 195 75 195C78.9782 195 82.7936 193.42 85.6066 190.607C88.4196 187.794 90 183.978 90 180C90 176.022 88.4196 172.206 85.6066 169.393C82.7936 166.58 78.9782 165 75 165ZM45 180C45 172.044 48.1607 164.413 53.7868 158.787C59.4129 153.161 67.0435 150 75 150C82.9565 150 90.5871 153.161 96.2132 158.787C101.839 164.413 105 172.044 105 180C105 187.956 101.839 195.587 96.2132 201.213C90.5871 206.839 82.9565 210 75 210C67.0435 210 59.4129 206.839 53.7868 201.213C48.1607 195.587 45 187.956 45 180ZM180 165C176.022 165 172.206 166.58 169.393 169.393C166.58 172.206 165 176.022 165 180C165 183.978 166.58 187.794 169.393 190.607C172.206 193.42 176.022 195 180 195C183.978 195 187.794 193.42 190.607 190.607C193.42 187.794 195 183.978 195 180C195 176.022 193.42 172.206 190.607 169.393C187.794 166.58 183.978 165 180 165ZM150 180C150 172.044 153.161 164.413 158.787 158.787C164.413 153.161 172.044 150 180 150C187.956 150 195.587 153.161 201.213 158.787C206.839 164.413 210 172.044 210 180C210 187.956 206.839 195.587 201.213 201.213C195.587 206.839 187.956 210 180 210C172.044 210 164.413 206.839 158.787 201.213C153.161 195.587 150 187.956 150 180Z" fill="#BB2649"/>
</svg>
