<svg width="240" height="240" viewBox="0 0 240 240" fill="none" xmlns="http://www.w3.org/2000/svg">
<path d="M162.81 92.19C163.508 92.8867 164.062 93.7143 164.44 94.6255C164.818 95.5366 165.013 96.5135 165.013 97.5C165.013 98.4865 164.818 99.4633 164.44 100.374C164.062 101.286 163.508 102.113 162.81 102.81L117.81 147.81C117.113 148.508 116.285 149.063 115.374 149.441C114.463 149.819 113.486 150.013 112.5 150.013C111.513 150.013 110.536 149.819 109.625 149.441C108.714 149.063 107.886 148.508 107.19 147.81L84.6897 125.31C83.9924 124.613 83.4392 123.785 83.0619 122.874C82.6845 121.963 82.4902 120.986 82.4902 120C82.4902 119.014 82.6845 118.037 83.0619 117.126C83.4392 116.215 83.9924 115.387 84.6897 114.69C85.387 113.993 86.2149 113.44 87.126 113.062C88.037 112.685 89.0136 112.49 89.9997 112.49C90.9859 112.49 91.9624 112.685 92.8735 113.062C93.7846 113.44 94.6124 113.993 95.3097 114.69L112.5 131.895L152.19 92.19C152.886 91.4915 153.714 90.9374 154.625 90.5593C155.536 90.1812 156.513 89.9866 157.5 89.9866C158.486 89.9866 159.463 90.1812 160.374 90.5593C161.285 90.9374 162.113 91.4915 162.81 92.19Z" fill="#BB2649"/>
<path d="M60 0C52.0435 0 44.4129 3.16071 38.7868 8.7868C33.1607 14.4129 30 22.0435 30 30V210C30 217.956 33.1607 225.587 38.7868 231.213C44.4129 236.839 52.0435 240 60 240H180C187.956 240 195.587 236.839 201.213 231.213C206.839 225.587 210 217.956 210 210V30C210 22.0435 206.839 14.4129 201.213 8.7868C195.587 3.16071 187.956 0 180 0L60 0ZM60 15H180C183.978 15 187.794 16.5804 190.607 19.3934C193.42 22.2064 195 26.0218 195 30V210C195 213.978 193.42 217.794 190.607 220.607C187.794 223.42 183.978 225 180 225H60C56.0218 225 52.2064 223.42 49.3934 220.607C46.5804 217.794 45 213.978 45 210V30C45 26.0218 46.5804 22.2064 49.3934 19.3934C52.2064 16.5804 56.0218 15 60 15Z" fill="#BB2649"/>
<path d="M115 171.25C115.002 178.483 117.511 185.491 122.1 191.081C126.689 196.671 133.075 200.496 140.169 201.906C140.573 197.428 141.722 193.049 143.569 188.95C138.094 187.1 134.575 182.9 133.75 176.938H130.625V174.275H133.538V171.563C133.538 171.275 133.538 170.981 133.562 170.719H130.625V168.05H133.819C135.225 160.25 141.331 155.625 150.506 155.625C152.481 155.625 154.194 155.819 155.625 156.156V160.738C153.953 160.366 152.243 160.194 150.531 160.225C144.788 160.225 140.919 163.138 139.694 168.05H151.675V170.719H139.3C139.281 171.006 139.281 171.325 139.281 171.638V174.275H151.675V176.944H139.562C140.3 180.706 142.487 183.381 145.844 184.625C149.135 179.175 153.66 174.574 159.056 171.195C164.452 167.815 170.566 165.751 176.906 165.169C175.373 157.578 171.078 150.827 164.852 146.222C158.626 141.617 150.913 139.487 143.206 140.244C135.499 141.001 128.348 144.592 123.137 150.32C117.926 156.048 115.026 163.506 115 171.25V171.25ZM215 205.625C215 214.742 211.378 223.485 204.932 229.932C198.485 236.378 189.742 240 180.625 240C171.508 240 162.765 236.378 156.318 229.932C149.872 223.485 146.25 214.742 146.25 205.625C146.25 196.508 149.872 187.765 156.318 181.318C162.765 174.872 171.508 171.25 180.625 171.25C189.742 171.25 198.485 174.872 204.932 181.318C211.378 187.765 215 196.508 215 205.625ZM166.562 213.888C166.994 219.106 171.225 223.169 178.837 223.65V227.5H182.213V223.625C190.081 223.088 194.688 219 194.688 213.063C194.688 207.656 191.169 204.875 184.875 203.438L182.213 202.813V192.338C185.588 192.713 187.738 194.506 188.25 196.994H194.175C193.738 191.969 189.306 188.038 182.213 187.606V183.75H178.837V187.681C172.112 188.325 167.538 192.256 167.538 197.819C167.538 202.738 170.938 205.869 176.6 207.15L178.837 207.681V218.806C175.375 218.306 173.088 216.456 172.569 213.888H166.562ZM178.812 202.044C175.487 201.294 173.688 199.769 173.688 197.469C173.688 194.906 175.631 192.975 178.837 192.413V202.038H178.806L178.812 202.044ZM182.7 208.569C186.731 209.475 188.594 210.944 188.594 213.544C188.594 216.506 186.281 218.544 182.219 218.919V208.456L182.7 208.569Z" fill="#BB2649"/>
</svg>
