<svg width="20" height="28" viewBox="0 0 20 28" fill="none" xmlns="http://www.w3.org/2000/svg">
<path d="M10 5.25C5.16797 5.25 1.25 9.16797 1.25 14C1.25 18.832 5.16797 22.75 10 22.75C14.832 22.75 18.75 18.832 18.75 14C18.75 9.16797 14.832 5.25 10 5.25ZM13.2305 17.3242L11.9414 17.3184L10 15.0039L8.06055 17.3164L6.76953 17.3223C6.68359 17.3223 6.61328 17.2539 6.61328 17.166C6.61328 17.1289 6.62695 17.0938 6.65039 17.0645L9.19141 14.0371L6.65039 11.0117C6.62679 10.9831 6.61369 10.9473 6.61328 10.9102C6.61328 10.8242 6.68359 10.7539 6.76953 10.7539L8.06055 10.7598L10 13.0742L11.9395 10.7617L13.2285 10.7559C13.3145 10.7559 13.3848 10.8242 13.3848 10.9121C13.3848 10.9492 13.3711 10.9844 13.3477 11.0137L10.8105 14.0391L13.3496 17.0664C13.373 17.0957 13.3867 17.1309 13.3867 17.168C13.3867 17.2539 13.3164 17.3242 13.2305 17.3242Z" fill="#919191"/>
</svg>
