<svg width="206" height="176" viewBox="0 0 206 176" fill="none" xmlns="http://www.w3.org/2000/svg">
<path d="M160.5 172.9C156.6 176.8 150.3 176.8 146.4 172.9L125.2 151.7C121.3 147.8 121.3 141.5 125.2 137.6C129.1 133.7 135.4 133.7 139.3 137.6L153.4 151.7L188.8 116.3C192.7 112.4 199 112.4 202.9 116.3C206.8 120.2 206.8 126.5 202.9 130.4L160.5 172.9ZM100.8 160H20C9 160 0 151 0 140V20C0 9 9 0 20 0H180C191 0 200 9 200 20V86.8C190.9 82.5 180.8 80 170 80C131.3 80 100 111.3 100 150C100 153.4 100.3 156.7 100.8 160ZM94.7 86.7C97.9 88.7 102.1 88.7 105.3 86.7L176 42.5C178.5 40.9 180 38.2 180 35.3C180 28.6 172.7 24.6 167 28.1L100 70L33 28.1C27.3 24.6 20 28.6 20 35.3C20 38.2 21.5 40.9 24 42.5L94.7 86.7Z" fill="#FF0000"/>
</svg>
