<svg width="25" height="24" viewBox="0 0 25 24" fill="none" xmlns="http://www.w3.org/2000/svg">
<path d="M9.13691 15.7266H10.5174C10.6275 15.7266 10.733 15.6773 10.8057 15.593L12.84 13.1672L14.8744 15.593C14.9447 15.6773 15.0502 15.7266 15.1627 15.7266H16.5432C16.7025 15.7266 16.7892 15.5414 16.6861 15.4195L13.8197 12L16.6885 8.58047C16.7916 8.45859 16.7049 8.27344 16.5455 8.27344H15.165C15.0549 8.27344 14.9494 8.32266 14.8768 8.40703L12.84 10.8328L10.8057 8.40703C10.7353 8.32266 10.6299 8.27344 10.5174 8.27344H9.13691C8.97753 8.27344 8.89081 8.45859 8.99394 8.58047L11.8603 12L8.99394 15.4195C8.97084 15.4467 8.95602 15.4799 8.95124 15.5153C8.94646 15.5506 8.95192 15.5866 8.96697 15.6189C8.98202 15.6512 9.00604 15.6785 9.03616 15.6976C9.06628 15.7167 9.10125 15.7268 9.13691 15.7266Z" fill="#919191"/>
<path d="M21.4648 2.625H4.21484C3.8 2.625 3.46484 2.96016 3.46484 3.375V20.625C3.46484 21.0398 3.8 21.375 4.21484 21.375H21.4648C21.8797 21.375 22.2148 21.0398 22.2148 20.625V3.375C22.2148 2.96016 21.8797 2.625 21.4648 2.625ZM20.5273 19.6875H5.15234V4.3125H20.5273V19.6875Z" fill="#919191"/>
</svg>
