<svg width="40" height="41" viewBox="0 0 40 41" fill="none" xmlns="http://www.w3.org/2000/svg">
<g clip-path="url(#clip0_5260_4847)">
<path d="M19.9997 3.8335C13.5497 3.8335 8.33301 9.05016 8.33301 15.5002C8.33301 22.4502 15.6997 32.0335 18.733 35.6835C19.3997 36.4835 20.6163 36.4835 21.283 35.6835C24.2997 32.0335 31.6663 22.4502 31.6663 15.5002C31.6663 9.05016 26.4497 3.8335 19.9997 3.8335ZM19.9997 19.6668C17.6997 19.6668 15.833 17.8002 15.833 15.5002C15.833 13.2002 17.6997 11.3335 19.9997 11.3335C22.2997 11.3335 24.1663 13.2002 24.1663 15.5002C24.1663 17.8002 22.2997 19.6668 19.9997 19.6668Z" fill="#1E1E1E"/>
<path d="M19.9997 3.8335C13.5497 3.8335 8.33301 9.05016 8.33301 15.5002C8.33301 22.4502 15.6997 32.0335 18.733 35.6835C19.3997 36.4835 20.6163 36.4835 21.283 35.6835C24.2997 32.0335 31.6663 22.4502 31.6663 15.5002C31.6663 9.05016 26.4497 3.8335 19.9997 3.8335ZM19.9997 19.6668C17.6997 19.6668 15.833 17.8002 15.833 15.5002C15.833 13.2002 17.6997 11.3335 19.9997 11.3335C22.2997 11.3335 24.1663 13.2002 24.1663 15.5002C24.1663 17.8002 22.2997 19.6668 19.9997 19.6668Z" fill="black" fill-opacity="0.2"/>
<path d="M19.9997 3.8335C13.5497 3.8335 8.33301 9.05016 8.33301 15.5002C8.33301 22.4502 15.6997 32.0335 18.733 35.6835C19.3997 36.4835 20.6163 36.4835 21.283 35.6835C24.2997 32.0335 31.6663 22.4502 31.6663 15.5002C31.6663 9.05016 26.4497 3.8335 19.9997 3.8335ZM19.9997 19.6668C17.6997 19.6668 15.833 17.8002 15.833 15.5002C15.833 13.2002 17.6997 11.3335 19.9997 11.3335C22.2997 11.3335 24.1663 13.2002 24.1663 15.5002C24.1663 17.8002 22.2997 19.6668 19.9997 19.6668Z" fill="black" fill-opacity="0.2"/>
<path d="M19.9997 3.8335C13.5497 3.8335 8.33301 9.05016 8.33301 15.5002C8.33301 22.4502 15.6997 32.0335 18.733 35.6835C19.3997 36.4835 20.6163 36.4835 21.283 35.6835C24.2997 32.0335 31.6663 22.4502 31.6663 15.5002C31.6663 9.05016 26.4497 3.8335 19.9997 3.8335ZM19.9997 19.6668C17.6997 19.6668 15.833 17.8002 15.833 15.5002C15.833 13.2002 17.6997 11.3335 19.9997 11.3335C22.2997 11.3335 24.1663 13.2002 24.1663 15.5002C24.1663 17.8002 22.2997 19.6668 19.9997 19.6668Z" fill="black" fill-opacity="0.2"/>
</g>
<defs>
<clipPath id="clip0_5260_4847">
<rect width="40" height="40" fill="white" transform="translate(0 0.5)"/>
</clipPath>
</defs>
</svg>
