<svg width="25" height="24" viewBox="0 0 25 24" fill="none" xmlns="http://www.w3.org/2000/svg">
<path d="M21.1836 17.1563H19.536C19.4235 17.1563 19.318 17.2055 19.2477 17.2922C19.0836 17.4914 18.9078 17.6836 18.7227 17.8664C17.9654 18.6245 17.0684 19.2286 16.0813 19.6453C15.0586 20.0773 13.9594 20.2989 12.8493 20.2969C11.7266 20.2969 10.6391 20.0766 9.61722 19.6453C8.6301 19.2286 7.7331 18.6245 6.97581 17.8664C6.21718 17.111 5.61226 16.2155 5.19456 15.2297C4.76097 14.2078 4.543 13.1227 4.543 12C4.543 10.8774 4.76331 9.79222 5.19456 8.77035C5.61175 7.78363 6.21175 6.89535 6.97581 6.13363C7.73988 5.37191 8.62816 4.77191 9.61722 4.35472C10.6391 3.92347 11.7266 3.70316 12.8493 3.70316C13.9719 3.70316 15.0594 3.92113 16.0813 4.35472C17.0703 4.77191 17.9586 5.37191 18.7227 6.13363C18.9078 6.31879 19.0813 6.51097 19.2477 6.70785C19.318 6.79457 19.4258 6.84379 19.536 6.84379H21.1836C21.3313 6.84379 21.4227 6.67972 21.3407 6.5555C19.543 3.76175 16.3977 1.91254 12.8235 1.92191C7.20785 1.93597 2.7055 6.49457 2.76175 12.1032C2.818 17.6227 7.31331 22.0782 12.8493 22.0782C16.4141 22.0782 19.5453 20.2313 21.3407 17.4446C21.4203 17.3203 21.3313 17.1563 21.1836 17.1563ZM23.2672 11.8524L19.9414 9.22738C19.8172 9.12894 19.6368 9.218 19.6368 9.37504V11.1563H12.2774C12.1743 11.1563 12.0899 11.2407 12.0899 11.3438V12.6563C12.0899 12.7594 12.1743 12.8438 12.2774 12.8438H19.6368V14.625C19.6368 14.7821 19.8196 14.8711 19.9414 14.7727L23.2672 12.1477C23.2896 12.1302 23.3078 12.1077 23.3202 12.0822C23.3327 12.0566 23.3392 12.0285 23.3392 12C23.3392 11.9716 23.3327 11.9435 23.3202 11.9179C23.3078 11.8923 23.2896 11.8699 23.2672 11.8524Z" fill="#919191"/>
</svg>
