<svg width="200" height="55" viewBox="0 0 200 55" fill="none" xmlns="http://www.w3.org/2000/svg">
<path d="M49.7024 26.8321C50.599 26.8704 51.1171 27.3428 51.1171 27.3428C51.5422 27.6333 51.8245 27.9973 51.6818 28.2878C51.6818 28.2878 42.7993 46.915 25.4314 46.915C23.9143 46.915 20.9948 46.733 18.9596 44.6325C15.7112 41.2773 16.0463 34.267 19.8593 26.8129C18.0381 25.1433 17.1012 23.4386 16.6296 22.382C16.158 21.3253 15.7205 20.3197 15.8229 18.9662C15.9315 17.5073 16.6017 16.4411 16.9895 15.9207C16.9584 16.8529 17.0236 18.1809 17.489 19.6813C18.2894 22.2543 19.8128 23.876 20.6225 24.623C25.7696 14.3788 35.3874 4.3645 44.214 4.3645C45.0176 4.3645 47.059 4.30066 48.1015 5.63824C48.4738 6.11709 49.3084 7.5249 47.8564 11.6717C44.4498 21.4019 35.7411 25.8903 35.7411 25.8903C34.0223 26.7746 31.1711 27.9909 27.3053 28.4761C26.1884 30.2287 23.9701 34.1521 24.1283 38.3021C24.1656 39.3268 24.2556 41.0283 25.419 42.0211C26.3063 42.7777 27.4232 42.7841 27.8079 42.7841C33.3552 42.8033 47.3196 26.7331 49.7024 26.8321ZM28.3726 25.8999C36.8021 24.9103 45.2875 15.8281 45.2875 10.7651C45.2875 10.0085 45.1758 9.42753 44.214 9.42753C40.308 9.42753 33.0667 17.5775 28.3726 25.8999Z" fill="#FEFEFE"/>
<path d="M79.9671 28.2878C76.6288 35.4482 71.3669 42.7842 65.1433 42.7842C65.1433 42.7842 60.958 42.9023 60.7315 37.951C57.6755 40.8017 54.2814 42.7842 51.1137 42.7842C49.8696 42.7842 45.7401 41.9095 45.7401 36.9039C45.7401 28.0548 56.5462 15.7739 64.2963 15.7739C66.3905 15.7739 69.7288 17.5201 69.7288 20.6646C69.7288 21.4786 69.6729 22.3533 69.4465 23.2248C70.6347 23.5728 71.6523 24.0995 71.6523 24.623C71.6523 25.9032 67.0141 34.3437 67.0141 37.1401C67.0141 38.1872 67.5229 38.5384 68.0875 38.5384C70.2376 38.5384 75.0465 32.2527 77.423 27.0716C77.8201 26.2511 80.3642 27.4738 79.9671 28.2878ZM65.3729 22.6406C65.3729 21.9415 65.1464 21.1849 64.2404 21.1849C60.564 21.1849 52.0196 32.8273 52.0196 37.5424C52.0196 38.6469 52.5284 38.9406 53.0931 38.9406C56.8875 38.9406 65.3729 27.2408 65.3729 22.6406Z" fill="#FEFEFE"/>
<path d="M103.448 28.2878C100.053 35.4482 94.8474 42.7842 88.6238 42.7842C85.7943 42.7842 84.1531 41.6796 80.8179 41.5615C79.6296 42.3756 78.4972 42.7842 77.6502 42.7842C72.6148 42.7842 73.9737 38.2447 78.2148 36.8465C84.4943 34.6916 89.7003 27.5919 93.0387 21.8266C92.5205 21.4754 91.8132 21.0604 90.9289 20.7188C90.4108 20.5177 89.4521 20.157 88.146 20.074C88.146 20.074 86.8336 19.9878 85.7229 20.2591C82.0123 21.1594 80.9264 29.319 78.9936 29.2168C78.6213 29.1976 78.0566 28.8625 77.4237 27.0684C77.4237 27.0684 81.9503 15.7739 88.0591 15.7739C92.2444 15.7739 93.6033 18.0437 98.074 16.821C99.9417 16.24 101.13 18.3916 99.9417 20.2559C96.377 25.785 90.6063 33.0029 85.6267 37.7786C86.8709 38.1266 88.2856 38.5352 90.5473 38.5352C93.9415 38.5352 98.5239 32.307 100.9 27.0684C101.298 26.2511 103.789 27.4738 103.448 28.2878Z" fill="#FEFEFE"/>
<path d="M131.736 28.2878C128.397 35.4482 123.136 42.7842 116.912 42.7842C116.912 42.7842 112.727 42.9023 112.5 37.951C109.444 40.8017 106.05 42.7842 102.882 42.7842C101.638 42.7842 97.5088 41.9095 97.5088 36.9039C97.5088 28.0548 108.315 15.7739 116.065 15.7739C118.159 15.7739 121.497 17.5201 121.497 20.6646C121.497 21.4786 121.442 22.3533 121.215 23.2248C122.403 23.5728 123.421 24.0995 123.421 24.623C123.421 25.9032 118.783 34.3437 118.783 37.1401C118.783 38.1872 119.292 38.5384 119.856 38.5384C122.006 38.5384 126.815 32.2527 129.192 27.0716C129.586 26.2511 132.13 27.4738 131.736 28.2878ZM117.138 22.6406C117.138 21.9415 116.912 21.1849 116.006 21.1849C112.33 21.1849 103.785 32.8273 103.785 37.5424C103.785 38.6469 104.294 38.9406 104.859 38.9406C108.653 38.9406 117.138 27.2408 117.138 22.6406Z" fill="#FEFEFE"/>
<path d="M158.157 28.2879C154.819 35.4482 150.518 40.6868 144.354 40.6868C143.448 40.6868 141.921 40.5113 140.563 39.6972C138.015 41.5615 135.301 42.781 132.868 42.781C131.68 42.781 130.321 42.3149 129.133 41.4434C126.645 47.3237 124.777 52.3867 124.777 53.6668C124.777 54.947 119.344 53.8424 119.344 51.9206C119.344 49.8839 123.247 40.3931 127.15 31.5472C127.433 30.8481 127.715 30.0915 128.112 29.3924C130.771 23.5121 133.259 18.2161 134.447 16.1187C134.956 15.244 139.256 16.2368 139.936 17.5169C142.03 16.4124 144.121 15.7708 146.104 15.7708C147.348 15.7708 151.477 16.6454 151.477 21.5935C151.477 26.3086 148.421 32.0133 144.407 36.2623C144.633 36.3772 144.915 36.4379 145.198 36.4379C149.498 36.4379 153.23 32.2463 155.607 27.0652C156.007 26.2512 158.551 27.4738 158.157 28.2879ZM133.545 37.37C134.677 37.37 136.203 36.3229 137.845 34.7491C137.978 34.6246 138.112 34.4969 138.245 34.366C139.297 33.3349 140.172 32.2591 140.901 31.1961C143.56 27.6462 145.765 23.394 145.765 21.0093C145.765 19.9048 145.257 19.6111 144.692 19.6111C140.901 19.6111 132.415 31.311 132.415 35.9111C132.415 36.6103 132.642 37.37 133.545 37.37Z" fill="#FEFEFE"/>
<path d="M184.578 28.2879C181.24 35.4482 176.94 40.6868 170.775 40.6868C169.869 40.6868 168.343 40.5113 166.984 39.6972C164.437 41.5615 161.722 42.781 159.29 42.781C158.101 42.781 156.742 42.3149 155.554 41.4434C153.066 47.3237 151.198 52.3867 151.198 53.6668C151.198 54.947 145.766 53.8424 145.766 51.9206C145.766 49.8839 149.669 40.3931 153.572 31.5472C153.854 30.8481 154.136 30.0915 154.533 29.3924C157.192 23.5121 159.681 18.2161 160.869 16.1187C161.378 15.244 165.678 16.2368 166.357 17.5169C168.451 16.4124 170.542 15.7708 172.525 15.7708C173.769 15.7708 177.899 16.6454 177.899 21.5935C177.899 26.3086 174.843 32.0133 170.828 36.2623C171.054 36.3772 171.337 36.4379 171.619 36.4379C175.919 36.4379 179.651 32.2463 182.028 27.0652C182.428 26.2512 184.972 27.4738 184.578 28.2879ZM159.966 37.37C161.098 37.37 162.625 36.3229 164.266 34.7491C165.284 33.5648 166.301 32.3804 167.322 31.1993C169.981 27.6494 172.187 23.3972 172.187 21.0125C172.187 19.908 171.678 19.6143 171.113 19.6143C167.322 19.6143 158.837 31.3142 158.837 35.9143C158.837 36.6102 159.063 37.37 159.966 37.37Z" fill="#FEFEFE"/>
<path d="M198.043 28.2879C194.705 35.4483 189.443 42.7843 183.219 42.7843C183.219 42.7843 178.748 42.9598 178.748 37.4275C178.748 32.4794 186.896 16.5881 187.404 16.0645C188.196 15.2505 192.949 16.4125 192.949 17.5777C192.949 18.8578 185.084 33.7596 185.084 37.137C185.084 38.1841 185.593 38.5353 186.157 38.5353C188.307 38.5353 193.116 32.2496 195.493 27.0685C195.893 26.2512 198.437 27.4739 198.043 28.2879ZM192.303 2.25452C193.377 0.782856 195.846 -0.723919 197.928 0.380625C199.861 1.40536 200.292 4.06138 199.83 5.75969C199.582 6.66631 199.033 7.28881 197.928 8.53063C196.994 9.58409 196.712 9.63836 194.522 11.5474C192.586 13.2361 192.164 13.7628 191.748 13.5841C191.301 13.3925 191.258 12.2593 191.193 9.9991C191.146 8.4157 191.124 7.6272 191.245 6.50669C191.484 4.33272 191.59 3.23456 192.303 2.25452Z" fill="#FEFEFE"/>
<path d="M195.62 6.41399C196.53 6.41399 197.267 5.75653 197.267 4.94552C197.267 4.13451 196.53 3.47705 195.62 3.47705C194.71 3.47705 193.972 4.13451 193.972 4.94552C193.972 5.75653 194.71 6.41399 195.62 6.41399Z" fill="#BB2649"/>
<path d="M12.7389 33.635H3.22037L5.31146 30.9438H14.3646L12.7389 33.635Z" fill="#FEFEFE"/>
<path d="M10.9177 21.1849H0L2.39825 18.4969H12.7793L10.9177 21.1849Z" fill="#FEFEFE"/>
<path d="M24.2742 12.1154H11.7897L14.5323 9.42749H26.4056L24.2742 12.1154Z" fill="#FEFEFE"/>
</svg>
