<svg width="165" height="37" viewBox="0 0 165 37" fill="none" xmlns="http://www.w3.org/2000/svg">
<path d="M107.537 33.6775C106.913 35.5133 105.459 36.5482 103.84 36.3145C102.079 36.0475 100.843 34.6345 100.832 32.6985C100.81 26.2342 100.723 19.7697 100.854 13.3166C101.007 6.05118 107.023 0.187766 114.231 0.0431254C121.176 -0.0903886 127.377 5.47278 127.968 12.371C128.613 19.87 123.67 26.4343 116.517 27.5247C115.663 27.6582 114.777 27.6917 113.913 27.6027C112.284 27.4246 111.081 26.0117 111.004 24.3539C110.938 22.774 111.988 21.3164 113.52 20.9047C113.979 20.7823 114.46 20.7379 114.942 20.7045C118.376 20.4263 121.067 17.6224 121.165 14.1956C121.274 10.6352 118.857 7.56452 115.587 7.10835C111.879 6.59655 108.696 8.69924 107.854 12.2374C107.777 12.5823 107.679 12.916 107.592 13.2609C107.526 13.2609 107.449 13.2498 107.384 13.272C107.362 13.272 107.34 13.3389 107.34 13.3834C107.34 20.0368 107.351 26.6902 107.362 33.3437C107.373 33.4438 107.482 33.5662 107.537 33.6775Z" fill="white"/>
<path d="M135.777 33.4217C135.285 35.2798 134.071 36.3367 132.442 36.3367C130.91 36.3367 129.718 35.3689 129.27 33.7778C129.281 26.9241 129.292 20.0704 129.292 13.2167C129.292 12.9608 129.204 12.7047 129.149 12.4488C129.795 5.5172 135.34 0.310246 142.362 0.032092C148.749 -0.22381 154.721 4.64942 155.946 11.1249C157.521 19.3916 151.899 26.913 143.62 27.625C141.126 27.8364 139.431 26.6571 139.234 24.5542C139.026 22.3846 140.524 20.8826 143.073 20.7046C146.343 20.471 148.979 17.9451 149.373 14.674C149.766 11.4363 147.765 8.31001 144.637 7.30865C141.06 6.16265 137.298 8.19861 136.138 11.9036C136.051 12.1929 135.942 12.4822 135.843 12.7715C135.832 12.727 135.843 12.6604 135.81 12.6493C135.745 12.5936 135.657 12.5713 135.581 12.5268C135.581 12.6158 135.57 12.7048 135.57 12.7938C135.57 19.4695 135.57 26.1452 135.57 32.832C135.581 33.0212 135.712 33.2215 135.777 33.4217Z" fill="white"/>
<path d="M50.9353 18.4235C50.9353 20.3261 50.9572 22.2285 50.9243 24.1311C50.8915 26.2339 49.59 27.6026 47.6431 27.636C45.6525 27.6694 44.165 26.2673 44.1322 24.1756C44.0775 20.771 44.1322 17.3553 44.1103 13.9507C44.0884 10.4349 41.879 7.74244 38.554 7.10825C35.4697 6.51856 32.1665 8.38754 31.0728 11.336C29.8915 14.5069 31.0072 18.034 33.9384 19.7252C34.9447 20.3148 36.2134 20.5152 37.3947 20.6821C39.1447 20.938 40.3697 21.9058 40.7087 23.5525C41.015 25.0434 40.3369 26.8348 38.8822 27.2687C37.6025 27.647 36.104 27.6803 34.7806 27.4355C27.5837 26.1004 22.5525 18.6015 23.9634 11.4808C25.5275 3.5923 32.7134 -1.31431 40.2384 0.376863C46.5275 1.78989 50.8259 7.11923 50.9243 13.6392C50.9462 15.2302 50.9353 16.8324 50.9353 18.4235Z" fill="white"/>
<path d="M92.9681 13.2721C92.8478 12.8048 92.7384 12.3375 92.5962 11.8702C91.5571 8.4433 88.2978 6.49622 84.7103 7.14154C81.4837 7.7201 79.1868 10.88 79.3946 14.4515C79.5915 17.7894 82.304 20.482 85.7165 20.7157C88.5384 20.9048 90.1681 22.9965 89.3368 25.3663C88.8009 26.8795 87.5103 27.7252 85.7603 27.6807C78.465 27.5138 72.6572 21.4166 72.5368 14.0066C72.4275 7.66465 76.9775 1.22246 84.065 0.232232C91.3821 -0.780249 97.7696 3.64793 99.3228 10.7687C99.7384 12.6824 99.6837 14.7186 99.7384 16.699C99.804 19.1802 99.7821 21.6501 99.7384 24.1312C99.7056 26.0004 98.4806 27.4025 96.7962 27.6361C95.1009 27.8698 93.7446 27.0019 93.2087 25.3441C93.2196 21.3943 93.2306 17.4335 93.2306 13.4837C93.2306 13.3279 93.1759 13.1719 93.154 13.0051C93.0993 13.0496 93.0446 13.0942 93.0009 13.1498C92.9681 13.1721 92.979 13.2276 92.9681 13.2721Z" fill="white"/>
<path d="M64.3009 6.98595C62.4196 6.98595 60.9212 6.99708 59.4228 6.98595C58.0774 6.97482 56.7212 7.00811 55.3868 6.89685C53.7899 6.76334 52.6087 5.52851 52.4556 4.01535C52.2696 2.21291 53.1774 0.721829 54.8071 0.221152C55.2556 0.0876375 55.7478 0.0209565 56.2181 0.0209565C60.0025 0.00983035 63.7868 -0.0346417 67.5712 0.0543676C68.5884 0.07662 69.6712 0.310128 70.59 0.744049C73.7509 2.23496 74.3853 6.16267 71.8696 8.98871C68.6649 12.5936 65.3509 16.0873 62.0915 19.6365C61.8618 19.8924 61.654 20.1593 61.2931 20.5932C61.9165 20.6266 62.3649 20.6601 62.8243 20.6601C65.1759 20.6712 67.5274 20.6378 69.8681 20.6712C71.7274 20.7046 73.1274 22.2064 73.1384 24.0979C73.1493 25.9003 71.804 27.5248 70.0321 27.5471C65.7665 27.6138 61.5009 27.6249 57.2462 27.5248C55.1571 27.4692 53.4399 26.4456 52.5759 24.4428C51.6681 22.34 52.1493 20.3262 53.6478 18.6684C56.7868 15.1971 60.0024 11.7924 63.1743 8.35445C63.4696 8.00953 63.7431 7.64239 64.3009 6.98595Z" fill="white"/>
<path d="M13.5071 27.6917C6.27745 27.5805 0.54619 22.1729 0.0321275 14.6739C-0.427247 7.89805 4.07901 1.67862 11.0243 0.310104C15.4321 -0.557737 19.3915 0.621658 22.7603 3.67023C24.5212 5.26127 24.6962 7.37521 23.2853 8.92175C21.9181 10.4238 19.9384 10.3792 18.1884 8.82151C15.9681 6.85218 12.9493 6.45173 10.4228 7.79799C8.03838 9.06638 6.61651 11.7812 6.88994 14.5294C7.18526 17.4444 9.07744 19.7697 11.8774 20.504C14.229 21.1159 16.3509 20.5709 18.1884 18.9464C20.0149 17.3443 22.0165 17.3331 23.3727 18.9019C24.729 20.4818 24.4665 22.5624 22.6946 24.1534C20.0587 26.501 16.9962 27.6695 13.5071 27.6917Z" fill="white"/>
<path d="M163.963 24.6211C163.843 26.2121 162.279 27.4692 160.715 27.5137C159.195 27.5582 157.992 26.6126 157.379 24.8881C157.434 24.5877 157.521 24.2872 157.521 23.9979C157.532 17.1776 157.532 10.346 157.521 3.52562C157.521 3.22521 157.434 2.92501 157.39 2.62461C157.992 0.922305 159.195 -0.00125436 160.715 0.0321241C162.301 0.0766288 163.46 1.08919 163.963 2.89163C163.909 3.23654 163.799 3.57024 163.799 3.91515C163.788 10.4796 163.788 17.044 163.799 23.5973C163.799 23.9422 163.898 24.2762 163.963 24.6211Z" fill="white"/>
<path d="M157.379 2.62451C157.423 2.92492 157.51 3.22512 157.51 3.52552C157.521 10.3459 157.521 17.1775 157.51 23.9978C157.51 24.2982 157.412 24.5987 157.368 24.888C157.324 24.6766 157.248 24.454 157.248 24.2426C157.237 17.2553 157.237 10.2569 157.248 3.26964C157.259 3.05825 157.335 2.83591 157.379 2.62451Z" fill="white"/>
<path d="M163.963 24.621C163.909 24.2761 163.799 23.9422 163.799 23.5972C163.788 17.0328 163.788 10.4684 163.799 3.91512C163.799 3.57021 163.898 3.23651 163.963 2.8916C163.996 4.21562 164.062 5.53942 164.062 6.85231C164.073 12.293 164.073 17.7228 164.062 23.1634C164.051 23.653 163.996 24.1426 163.963 24.621Z" fill="white"/>
<path d="M135.777 33.4216C135.712 33.2214 135.581 33.021 135.581 32.8097C135.57 26.134 135.57 19.4582 135.581 12.7714C135.581 12.6824 135.592 12.5934 135.592 12.5044C135.668 12.5489 135.756 12.5713 135.821 12.6269C135.843 12.6492 135.843 12.7046 135.854 12.7491C135.821 19.6474 135.799 26.5345 135.777 33.4216Z" fill="white"/>
<path d="M129.149 12.4487C129.204 12.7046 129.292 12.9607 129.292 13.2166C129.292 20.0704 129.281 26.9241 129.27 33.7778C129.193 33.444 129.04 33.1101 129.04 32.7763C129.029 26.2563 129.04 19.7477 129.04 13.2278C129.04 12.9719 129.106 12.7158 129.149 12.4487Z" fill="white"/>
<path d="M107.537 33.6775C107.482 33.5663 107.373 33.4438 107.373 33.3325C107.362 26.6791 107.351 20.0257 107.351 13.3723C107.351 13.3389 107.373 13.272 107.395 13.2609C107.46 13.2498 107.537 13.2498 107.602 13.2498C107.581 20.0701 107.559 26.8683 107.537 33.6775Z" fill="white"/>
<path d="M92.9681 13.2721C92.979 13.2276 92.979 13.1722 93.0009 13.1499C93.0446 13.0943 93.0993 13.0496 93.154 13.0051C93.1759 13.1609 93.2306 13.3169 93.2306 13.4837C93.2306 17.4335 93.2196 21.3944 93.2087 25.3441C93.1212 24.977 92.9571 24.5987 92.9571 24.2315C92.9353 20.571 92.9571 16.9215 92.9681 13.2721Z" fill="white"/>
</svg>
