<svg width="226" height="50" viewBox="0 0 226 50" fill="none" xmlns="http://www.w3.org/2000/svg">
<path d="M147.926 46.3363C147.069 48.8616 145.06 50.285 142.837 49.9521C140.411 49.5848 138.707 47.6449 138.707 44.9817C138.673 36.097 138.56 27.2009 138.741 18.3162C138.944 8.31804 147.227 0.248352 157.145 0.0532097C166.703 -0.141932 175.234 7.51451 176.047 17.0076C176.927 27.3271 170.134 36.3611 160.294 37.8648C159.12 38.0485 157.89 38.0944 156.717 37.9681C154.471 37.7271 152.824 35.7871 152.722 33.5028C152.632 31.3333 154.076 29.3245 156.186 28.762C156.818 28.5898 157.484 28.5439 158.138 28.4865C162.867 28.1077 166.556 24.2508 166.703 19.533C166.85 14.6314 163.521 10.4072 159.03 9.78734C153.929 9.08713 149.551 11.9798 148.389 16.8354C148.276 17.306 148.141 17.7652 148.028 18.2358C147.926 18.2358 147.836 18.2244 147.734 18.2473C147.7 18.2588 147.678 18.3506 147.678 18.3965C147.678 27.5452 147.689 36.694 147.712 45.8427C147.7 46.0148 147.847 46.1756 147.926 46.3363Z" fill="#FF0000"/>
<path d="M186.767 45.9805C186.078 48.5403 184.419 49.9981 182.174 49.9867C180.064 49.9867 178.428 48.6551 177.807 46.4741C177.818 37.0499 177.841 27.6142 177.841 18.19C177.841 17.8342 177.717 17.4898 177.649 17.134C178.54 7.60644 186.157 0.43211 195.828 0.0533048C204.607 -0.302542 212.833 6.41263 214.526 15.3088C216.693 26.6844 208.963 37.0269 197.566 38.0141C194.135 38.3126 191.799 36.6826 191.54 33.8014C191.258 30.8168 193.312 28.7506 196.81 28.4981C201.312 28.1767 204.934 24.71 205.476 20.1988C206.018 15.745 203.253 11.4519 198.954 10.0629C194.045 8.47884 188.854 11.2797 187.263 16.3763C187.139 16.7781 186.992 17.1684 186.868 17.5702C186.857 17.5128 186.868 17.4209 186.834 17.398C186.733 17.3291 186.62 17.2832 186.507 17.2258C186.507 17.3521 186.496 17.4668 186.496 17.5931C186.496 26.7763 186.496 35.9709 186.507 45.154C186.496 45.4295 186.676 45.705 186.767 45.9805Z" fill="#FF0000"/>
<path d="M70.0646 25.3413C70.0646 27.9585 70.0985 30.5757 70.0533 33.1929C70.0082 36.0971 68.214 37.9682 65.5396 38.0026C62.7975 38.0485 60.7551 36.1201 60.71 33.2503C60.6423 28.5669 60.71 23.872 60.6761 19.1886C60.6423 14.356 57.6068 10.6483 53.0366 9.77591C48.7938 8.9609 44.2462 11.5322 42.7341 15.5842C41.1092 19.9577 42.6325 24.7904 46.6723 27.1321C48.0603 27.9356 49.8093 28.2111 51.423 28.4521C53.8265 28.808 55.5192 30.1281 55.9931 32.4124C56.4219 34.4556 55.474 36.9351 53.4767 37.5205C51.7164 38.037 49.6514 38.0944 47.8346 37.7501C37.9383 35.9134 31.0097 25.5939 32.9506 15.7909C35.1059 4.9318 44.991 -1.80633 55.3386 0.523892C63.9937 2.47531 69.9066 9.79887 70.0421 18.7639C70.0872 20.9564 70.0533 23.1489 70.0646 25.3413Z" fill="#FF0000"/>
<path d="M127.874 18.2586C127.705 17.6158 127.558 16.9615 127.355 16.3302C125.922 11.6238 121.442 8.93775 116.511 9.8331C112.065 10.6366 108.905 14.9757 109.199 19.8886C109.469 24.4802 113.204 28.1879 117.899 28.5093C121.792 28.7733 124.015 31.6431 122.875 34.9031C122.142 36.9923 120.359 38.1401 117.955 38.0828C107.923 37.8647 99.9341 29.4736 99.7649 19.2688C99.6182 10.5448 105.881 1.68306 115.619 0.328544C125.685 -1.07189 134.475 5.03491 136.608 14.8264C137.184 17.4551 137.105 20.256 137.172 22.9765C137.263 26.3857 137.24 29.795 137.184 33.2042C137.138 35.7755 135.457 37.704 133.132 38.0254C130.797 38.3468 128.935 37.1644 128.19 34.8687C128.201 29.4276 128.213 23.9866 128.224 18.5571C128.224 18.339 128.156 18.1209 128.122 17.9028C128.055 17.9717 127.976 18.0291 127.919 18.0979C127.885 18.1209 127.897 18.1898 127.874 18.2586Z" fill="#FF0000"/>
<path d="M88.4467 9.61514C85.8513 9.61514 83.7976 9.62661 81.7326 9.61514C79.8819 9.60366 78.02 9.64957 76.1694 9.48887C73.969 9.3052 72.3553 7.6178 72.1409 5.52864C71.8927 3.04919 73.134 0.994457 75.3795 0.305721C76.0002 0.110579 76.6772 0.0302288 77.3204 0.0302288C82.5225 0.00727098 87.7358 -0.0386462 92.9379 0.0646642C94.3371 0.099101 95.8266 0.420513 97.0905 1.01742C101.446 3.06067 102.315 8.46724 98.8621 12.3586C94.4612 17.3175 89.8911 22.1272 85.4 26.9942C85.084 27.3386 84.7906 27.7174 84.2941 28.3028C85.1517 28.3488 85.7723 28.3947 86.393 28.3947C89.6203 28.4061 92.8589 28.3602 96.0862 28.4176C98.6364 28.4635 100.566 30.5297 100.577 33.124C100.589 35.6149 98.738 37.8418 96.3006 37.8763C90.4328 37.9681 84.5649 37.9911 78.7084 37.8418C75.8422 37.773 73.4725 36.3496 72.2876 33.6061C71.0351 30.7134 71.7008 27.9355 73.7546 25.6627C78.0765 20.8874 82.4886 16.204 86.8669 11.4747C87.307 11.027 87.6794 10.522 88.4467 9.61514Z" fill="#39FF14"/>
<path d="M18.5745 38.0941C8.63301 37.9334 0.745294 30.4951 0.0456685 20.187C-0.597535 10.8661 5.60882 2.3143 15.1666 0.420275C21.2263 -0.785013 26.6766 0.856473 31.3031 5.04628C33.7293 7.23876 33.9775 10.1429 32.0253 12.278C30.1409 14.3442 27.4326 14.2868 25.0065 12.1403C21.9597 9.43124 17.7958 8.88025 14.3203 10.7398C11.0366 12.4846 9.08438 16.2153 9.45676 20.0033C9.86299 24.0095 12.4697 27.2121 16.3063 28.2222C19.5449 29.0717 22.4563 28.3141 24.9952 26.0757C27.5003 23.8717 30.265 23.8488 32.1269 26.0183C34.0001 28.1993 33.639 31.0575 31.1903 33.25C27.5906 36.4526 23.3816 38.0712 18.5745 38.0941Z" fill="#FF0000"/>
<path d="M225.539 33.87C225.382 36.051 223.226 37.7844 221.071 37.8532C218.972 37.9221 217.325 36.625 216.478 34.2488C216.546 33.8356 216.67 33.4338 216.67 33.0206C216.681 23.6308 216.681 14.2411 216.67 4.85131C216.67 4.43806 216.557 4.02482 216.489 3.61158C217.325 1.28136 218.972 -0.00428263 221.071 0.053112C223.26 0.110507 224.84 1.51094 225.539 3.99039C225.46 4.46102 225.325 4.92018 225.325 5.39081C225.314 14.4133 225.314 23.4472 225.325 32.4696C225.314 32.9402 225.46 33.4109 225.539 33.87Z" fill="#FF0000"/>
<path d="M216.489 3.61182C216.557 4.02506 216.67 4.4383 216.67 4.85154C216.681 14.2413 216.681 23.6311 216.67 33.0208C216.67 33.4341 216.546 33.8358 216.478 34.2491C216.422 33.9506 216.32 33.6522 216.32 33.3652C216.309 23.7459 216.309 14.1265 216.32 4.50717C216.309 4.20872 216.433 3.91027 216.489 3.61182Z" fill="#FF0000"/>
<path d="M225.539 33.8701C225.46 33.3995 225.325 32.9403 225.325 32.4697C225.314 23.4473 225.314 14.4133 225.325 5.39091C225.325 4.92027 225.472 4.46111 225.539 3.99048C225.585 5.80415 225.664 7.6293 225.675 9.44297C225.686 16.9272 225.686 24.4 225.675 31.8843C225.675 32.5501 225.585 33.2044 225.539 33.8701Z" fill="#FF0000"/>
<path d="M186.767 45.9803C186.676 45.7048 186.496 45.4178 186.496 45.1423C186.485 35.9592 186.485 26.7646 186.485 17.5814C186.485 17.4552 186.496 17.3404 186.496 17.2141C186.609 17.2715 186.722 17.3174 186.823 17.3863C186.857 17.4093 186.846 17.5011 186.857 17.5585C186.834 27.0401 186.801 36.5102 186.767 45.9803Z" fill="#FF0000"/>
<path d="M177.649 17.1338C177.717 17.4896 177.841 17.834 177.841 18.1899C177.841 27.6141 177.818 37.0497 177.807 46.4739C177.694 46.0148 177.491 45.5556 177.491 45.0965C177.48 36.1314 177.48 27.1664 177.502 18.2013C177.502 17.8455 177.604 17.4896 177.649 17.1338Z" fill="#FF0000"/>
<path d="M147.926 46.3364C147.847 46.1757 147.7 46.015 147.7 45.8543C147.678 36.7056 147.678 27.5569 147.667 18.4082C147.667 18.3508 147.7 18.259 147.723 18.259C147.813 18.236 147.915 18.2475 148.016 18.2475C147.983 27.6028 147.949 36.9696 147.926 46.3364Z" fill="#FF0000"/>
<path d="M127.874 18.2587C127.885 18.2013 127.885 18.1324 127.919 18.0865C127.976 18.0176 128.055 17.9602 128.122 17.8914C128.156 18.1095 128.224 18.3276 128.224 18.5457C128.213 23.9867 128.201 29.4277 128.19 34.8572C128.066 34.3407 127.851 33.8356 127.851 33.319C127.84 28.2913 127.863 23.275 127.874 18.2587Z" fill="#FF0000"/>
</svg>
