<svg width="17" height="15" viewBox="0 0 17 15" fill="none" xmlns="http://www.w3.org/2000/svg">
<path d="M3.51784 10.894C3.62164 10.9982 3.70118 11.124 3.75079 11.2625C3.80039 11.4009 3.81885 11.5486 3.80484 11.695C3.73456 12.3726 3.60132 13.0421 3.40684 13.695C4.80184 13.372 5.65384 12.998 6.04084 12.802C6.26035 12.6908 6.51313 12.6645 6.75084 12.728C7.43228 12.9097 8.13461 13.0011 8.83984 13C12.8358 13 15.8398 10.193 15.8398 7C15.8398 3.808 12.8358 1 8.83984 1C4.84384 1 1.83984 3.808 1.83984 7C1.83984 8.468 2.45684 9.83 3.51784 10.894ZM3.02484 14.799C2.78791 14.846 2.55021 14.889 2.31184 14.928C2.11184 14.96 1.95984 14.752 2.03884 14.566C2.12764 14.3566 2.20902 14.1441 2.28284 13.929L2.28584 13.919C2.53384 13.199 2.73584 12.371 2.80984 11.6C1.58284 10.37 0.839844 8.76 0.839844 7C0.839844 3.134 4.42184 0 8.83984 0C13.2578 0 16.8398 3.134 16.8398 7C16.8398 10.866 13.2578 14 8.83984 14C8.0475 14.0011 7.25843 13.8982 6.49284 13.694C5.97284 13.957 4.85384 14.436 3.02484 14.799Z" fill="#919191"/>
</svg>
