<svg width="40" height="41" viewBox="0 0 40 41" fill="none" xmlns="http://www.w3.org/2000/svg">
<g clip-path="url(#clip0_5260_4842)">
<path d="M20.0003 13.8332C16.317 13.8332 13.3337 16.8165 13.3337 20.4998C13.3337 24.1832 16.317 27.1665 20.0003 27.1665C23.6837 27.1665 26.667 24.1832 26.667 20.4998C26.667 16.8165 23.6837 13.8332 20.0003 13.8332ZM34.9003 18.8332C34.1337 11.8832 28.617 6.3665 21.667 5.59984V3.83317C21.667 2.9165 20.917 2.1665 20.0003 2.1665C19.0837 2.1665 18.3337 2.9165 18.3337 3.83317V5.59984C11.3837 6.3665 5.86699 11.8832 5.10033 18.8332H3.33366C2.41699 18.8332 1.66699 19.5832 1.66699 20.4998C1.66699 21.4165 2.41699 22.1665 3.33366 22.1665H5.10033C5.86699 29.1165 11.3837 34.6332 18.3337 35.3998V37.1665C18.3337 38.0832 19.0837 38.8332 20.0003 38.8332C20.917 38.8332 21.667 38.0832 21.667 37.1665V35.3998C28.617 34.6332 34.1337 29.1165 34.9003 22.1665H36.667C37.5837 22.1665 38.3337 21.4165 38.3337 20.4998C38.3337 19.5832 37.5837 18.8332 36.667 18.8332H34.9003ZM20.0003 32.1665C13.5503 32.1665 8.33366 26.9498 8.33366 20.4998C8.33366 14.0498 13.5503 8.83317 20.0003 8.83317C26.4503 8.83317 31.667 14.0498 31.667 20.4998C31.667 26.9498 26.4503 32.1665 20.0003 32.1665Z" fill="#323232"/>
</g>
<defs>
<clipPath id="clip0_5260_4842">
<rect width="40" height="40" fill="white" transform="translate(0 0.5)"/>
</clipPath>
</defs>
</svg>
