<svg width="25" height="24" viewBox="0 0 25 24" fill="none" xmlns="http://www.w3.org/2000/svg">
<path fill-rule="evenodd" clip-rule="evenodd" d="M23.3398 7.5H2.33984V19.5C2.33984 19.8978 2.49788 20.2794 2.77918 20.5607C3.06049 20.842 3.44202 21 3.83984 21H21.8398C22.2377 21 22.6192 20.842 22.9005 20.5607C23.1818 20.2794 23.3398 19.8978 23.3398 19.5V7.5ZM23.3398 6H2.33984V4.5C2.33984 4.10218 2.49788 3.72064 2.77918 3.43934C3.06049 3.15804 3.44202 3 3.83984 3H21.8398C22.2377 3 22.6192 3.15804 22.9005 3.43934C23.1818 3.72064 23.3398 4.10218 23.3398 4.5V6ZM24.8398 4.5C24.8398 3.70435 24.5238 2.94129 23.9612 2.37868C23.3986 1.81607 22.6355 1.5 21.8398 1.5H3.83984C3.04419 1.5 2.28113 1.81607 1.71852 2.37868C1.15591 2.94129 0.839844 3.70435 0.839844 4.5L0.839844 19.5C0.839844 20.2956 1.15591 21.0587 1.71852 21.6213C2.28113 22.1839 3.04419 22.5 3.83984 22.5H21.8398C22.6355 22.5 23.3986 22.1839 23.9612 21.6213C24.5238 21.0587 24.8398 20.2956 24.8398 19.5V4.5Z" fill="#919191"/>
<path d="M5.33984 17.25C5.33984 17.0511 5.41886 16.8603 5.55951 16.7197C5.70017 16.579 5.89093 16.5 6.08984 16.5H7.58984C7.78876 16.5 7.97952 16.579 8.12017 16.7197C8.26083 16.8603 8.33984 17.0511 8.33984 17.25V18.75C8.33984 18.9489 8.26083 19.1397 8.12017 19.2803C7.97952 19.421 7.78876 19.5 7.58984 19.5H6.08984C5.89093 19.5 5.70017 19.421 5.55951 19.2803C5.41886 19.1397 5.33984 18.9489 5.33984 18.75V17.25ZM11.3398 17.25C11.3398 17.0511 11.4189 16.8603 11.5595 16.7197C11.7002 16.579 11.8909 16.5 12.0898 16.5H13.5898C13.7888 16.5 13.9795 16.579 14.1202 16.7197C14.2608 16.8603 14.3398 17.0511 14.3398 17.25V18.75C14.3398 18.9489 14.2608 19.1397 14.1202 19.2803C13.9795 19.421 13.7888 19.5 13.5898 19.5H12.0898C11.8909 19.5 11.7002 19.421 11.5595 19.2803C11.4189 19.1397 11.3398 18.9489 11.3398 18.75V17.25ZM17.3398 17.25C17.3398 17.0511 17.4189 16.8603 17.5595 16.7197C17.7002 16.579 17.8909 16.5 18.0898 16.5H19.5898C19.7888 16.5 19.9795 16.579 20.1202 16.7197C20.2608 16.8603 20.3398 17.0511 20.3398 17.25V18.75C20.3398 18.9489 20.2608 19.1397 20.1202 19.2803C19.9795 19.421 19.7888 19.5 19.5898 19.5H18.0898C17.8909 19.5 17.7002 19.421 17.5595 19.2803C17.4189 19.1397 17.3398 18.9489 17.3398 18.75V17.25Z" fill="#919191"/>
</svg>
