<svg width="28" height="28" viewBox="0 0 28 28" fill="none" xmlns="http://www.w3.org/2000/svg">
<g clip-path="url(#clip0_3087_8399)">
<path d="M13.9998 25.6665C15.2831 25.6665 16.3331 24.6165 16.3331 23.3332H11.6665C11.6665 24.6165 12.7048 25.6665 13.9998 25.6665ZM20.9998 18.6665V12.8332C20.9998 9.2515 19.0865 6.25317 15.7498 5.45984V4.6665C15.7498 3.69817 14.9682 2.9165 13.9998 2.9165C13.0315 2.9165 12.2498 3.69817 12.2498 4.6665V5.45984C8.90148 6.25317 6.99982 9.23984 6.99982 12.8332V18.6665L5.49482 20.1715C4.75982 20.9065 5.27315 22.1665 6.31148 22.1665H21.6765C22.7148 22.1665 23.2398 20.9065 22.5048 20.1715L20.9998 18.6665Z" fill="#EB1212"/>
</g>
<defs>
<clipPath id="clip0_3087_8399">
<rect width="28" height="28" fill="white"/>
</clipPath>
</defs>
</svg>
