<svg width="121" height="439" viewBox="0 0 121 439" fill="none" xmlns="http://www.w3.org/2000/svg">
<rect y="439" width="439" height="121" rx="8" transform="rotate(-90 0 439)" fill="#C1547A"/>
<mask id="mask0_1158_2594" style="mask-type:alpha" maskUnits="userSpaceOnUse" x="0" y="0" width="121" height="439">
<rect y="439" width="439" height="121" rx="8" transform="rotate(-90 0 439)" fill="#C1547A"/>
</mask>
<g mask="url(#mask0_1158_2594)">
<g filter="url(#filter0_f_1158_2594)">
<path d="M41.3593 273.728C124.556 332.505 173.035 431.078 149.641 493.897C126.246 556.716 39.8373 559.992 -43.3593 501.214C-126.556 442.437 -175.035 343.864 -151.641 281.045C-128.246 218.226 -41.8373 214.95 41.3593 273.728Z" fill="#BB2626"/>
</g>
</g>
<path d="M50.8469 327.884C51.0599 327.529 51.4054 327.272 51.8074 327.172C52.2095 327.071 52.6351 327.134 52.9906 327.347C53.3462 327.56 53.6026 327.905 53.7034 328.307C53.8042 328.71 53.7411 329.135 53.5281 329.491L45.5719 342.75H74.4281L66.4688 329.491C66.2557 329.135 66.1927 328.71 66.2935 328.307C66.3943 327.905 66.6507 327.56 67.0062 327.347C67.3618 327.134 67.7874 327.071 68.1894 327.172C68.5915 327.272 68.937 327.529 69.15 327.884L78.0719 342.75H83.4375C83.8519 342.75 84.2493 342.915 84.5424 343.208C84.8354 343.501 85 343.898 85 344.313V350.563C85 350.977 84.8354 351.374 84.5424 351.667C84.2493 351.96 83.8519 352.125 83.4375 352.125H81.875V367.75C81.875 369.408 81.2165 370.997 80.0444 372.169C78.8723 373.342 77.2826 374 75.625 374H44.375C42.7174 374 41.1277 373.342 39.9556 372.169C38.7835 370.997 38.125 369.408 38.125 367.75V352.125H36.5625C36.1481 352.125 35.7507 351.96 35.4576 351.667C35.1646 351.374 35 350.977 35 350.563V344.313C35 343.898 35.1646 343.501 35.4576 343.208C35.7507 342.915 36.1481 342.75 36.5625 342.75H41.9281L50.8438 327.884H50.8469ZM45.9375 356.813C45.9375 356.398 45.7729 356.001 45.4799 355.708C45.1868 355.415 44.7894 355.25 44.375 355.25C43.9606 355.25 43.5632 355.415 43.2701 355.708C42.9771 356.001 42.8125 356.398 42.8125 356.813V366.188C42.8125 366.602 42.9771 366.999 43.2701 367.292C43.5632 367.585 43.9606 367.75 44.375 367.75C44.7894 367.75 45.1868 367.585 45.4799 367.292C45.7729 366.999 45.9375 366.602 45.9375 366.188V356.813ZM53.75 356.813C53.75 356.398 53.5854 356.001 53.2924 355.708C52.9993 355.415 52.6019 355.25 52.1875 355.25C51.7731 355.25 51.3757 355.415 51.0826 355.708C50.7896 356.001 50.625 356.398 50.625 356.813V366.188C50.625 366.602 50.7896 366.999 51.0826 367.292C51.3757 367.585 51.7731 367.75 52.1875 367.75C52.6019 367.75 52.9993 367.585 53.2924 367.292C53.5854 366.999 53.75 366.602 53.75 366.188V356.813ZM61.5625 356.813C61.5625 356.398 61.3979 356.001 61.1049 355.708C60.8118 355.415 60.4144 355.25 60 355.25C59.5856 355.25 59.1882 355.415 58.8951 355.708C58.6021 356.001 58.4375 356.398 58.4375 356.813V366.188C58.4375 366.602 58.6021 366.999 58.8951 367.292C59.1882 367.585 59.5856 367.75 60 367.75C60.4144 367.75 60.8118 367.585 61.1049 367.292C61.3979 366.999 61.5625 366.602 61.5625 366.188V356.813ZM69.375 356.813C69.375 356.398 69.2104 356.001 68.9174 355.708C68.6243 355.415 68.2269 355.25 67.8125 355.25C67.3981 355.25 67.0007 355.415 66.7076 355.708C66.4146 356.001 66.25 356.398 66.25 356.813V366.188C66.25 366.602 66.4146 366.999 66.7076 367.292C67.0007 367.585 67.3981 367.75 67.8125 367.75C68.2269 367.75 68.6243 367.585 68.9174 367.292C69.2104 366.999 69.375 366.602 69.375 366.188V356.813ZM77.1875 356.813C77.1875 356.398 77.0229 356.001 76.7299 355.708C76.4368 355.415 76.0394 355.25 75.625 355.25C75.2106 355.25 74.8132 355.415 74.5201 355.708C74.2271 356.001 74.0625 356.398 74.0625 356.813V366.188C74.0625 366.602 74.2271 366.999 74.5201 367.292C74.8132 367.585 75.2106 367.75 75.625 367.75C76.0394 367.75 76.4368 367.585 76.7299 367.292C77.0229 366.999 77.1875 366.602 77.1875 366.188V356.813Z" fill="#FEFEFE"/>
<path d="M73.2491 221.647C73.2491 214.021 67.0704 207.843 59.4445 207.843C51.8185 207.843 45.6398 214.021 45.6398 221.647C45.6398 226.256 47.8997 230.342 51.3732 232.847C51.3509 232.858 51.3342 232.864 51.3231 232.869C48.8349 233.921 46.6027 235.43 44.6823 237.356C42.7619 239.276 41.259 241.514 40.2069 244.008C39.1772 246.446 38.6261 249.034 38.5704 251.695C38.5649 251.945 38.7652 252.151 39.0157 252.151H42.35C42.5894 252.151 42.7898 251.957 42.7953 251.717C42.9067 247.42 44.6267 243.395 47.6715 240.345C50.8165 237.189 54.9913 235.452 59.4445 235.452C67.0704 235.452 73.2491 229.273 73.2491 221.647ZM59.4445 231.222C54.1564 231.222 49.8702 226.936 49.8702 221.647C49.8702 216.359 54.1564 212.073 59.4445 212.073C64.7325 212.073 69.0187 216.359 69.0187 221.647C69.0187 226.936 64.7325 231.222 59.4445 231.222ZM65.2892 243.523H79.9845C80.2294 243.523 80.4298 243.323 80.4298 243.078V239.961C80.4298 239.716 80.2294 239.516 79.9845 239.516H70.1598L72.7871 236.17C72.8484 236.092 72.8818 235.992 72.8818 235.897C72.8818 235.653 72.6814 235.452 72.4364 235.452H68.3952C68.1225 235.452 67.8664 235.58 67.6939 235.792L63.8809 240.64C63.636 240.952 63.5024 241.341 63.5024 241.742C63.5079 242.727 64.3039 243.523 65.2892 243.523ZM78.6485 247.086H63.9532C63.7083 247.086 63.5079 247.286 63.5079 247.531V250.648C63.5079 250.893 63.7083 251.094 63.9532 251.094H73.7779L71.1506 254.439C71.0894 254.517 71.056 254.617 71.056 254.712C71.056 254.957 71.2564 255.157 71.5013 255.157H75.5425C75.8153 255.157 76.0713 255.029 76.2439 254.818L80.0569 249.969C80.3018 249.658 80.4354 249.268 80.4354 248.867C80.4298 247.882 79.6338 247.086 78.6485 247.086Z" fill="#FEFEFE"/>
<path d="M61 64.25C48.4367 64.25 38.25 74.4367 38.25 87C38.25 99.5633 48.4367 109.75 61 109.75C73.5633 109.75 83.75 99.5633 83.75 87C83.75 74.4367 73.5633 64.25 61 64.25ZM61 105.891C50.5695 105.891 42.1094 97.4305 42.1094 87C42.1094 76.5695 50.5695 68.1094 61 68.1094C71.4305 68.1094 79.8906 76.5695 79.8906 87C79.8906 97.4305 71.4305 105.891 61 105.891ZM63.4223 85.8219L62.1324 85.5223V78.7023C64.0621 78.9664 65.2555 80.175 65.4586 81.6578C65.484 81.8609 65.6566 82.0082 65.8598 82.0082H68.1398C68.3785 82.0082 68.5664 81.8 68.5461 81.5613C68.2363 78.3977 65.6313 76.3664 62.1527 76.016V74.3555C62.1527 74.132 61.9699 73.9492 61.7465 73.9492H60.3195C60.0961 73.9492 59.9133 74.132 59.9133 74.3555V76.0312C56.318 76.3816 53.5047 78.3672 53.5047 82.0742C53.5047 85.507 56.0336 87.1625 58.6895 87.7973L59.9438 88.1172V95.3637C57.6992 95.0641 56.4398 93.8656 56.1809 92.2508C56.1504 92.0578 55.9777 91.9156 55.7797 91.9156H53.4336C53.1949 91.9156 53.007 92.1187 53.0273 92.3574C53.2559 95.1504 55.3734 97.7199 59.893 98.05V99.6445C59.893 99.868 60.0758 100.051 60.2992 100.051H61.7414C61.9648 100.051 62.1477 99.868 62.1477 99.6395L62.1375 98.0297C66.1137 97.6793 68.9574 95.5516 68.9574 91.7328C68.9523 88.2086 66.7129 86.6344 63.4223 85.8219ZM59.9387 84.9992C59.6543 84.918 59.4156 84.8418 59.177 84.7453C57.4605 84.1258 56.6633 83.1254 56.6633 81.8355C56.6633 79.9922 58.0598 78.941 59.9387 78.7023V84.9992ZM62.1324 95.3789V88.5895C62.2898 88.6352 62.432 88.6707 62.5793 88.7012C64.9812 89.4324 65.7887 90.448 65.7887 92.007C65.7887 93.9926 64.2957 95.1859 62.1324 95.3789Z" fill="#FEFEFE"/>
<defs>
<filter id="filter0_f_1158_2594" x="-357.523" y="31.7012" width="713.047" height="711.539" filterUnits="userSpaceOnUse" color-interpolation-filters="sRGB">
<feFlood flood-opacity="0" result="BackgroundImageFix"/>
<feBlend mode="normal" in="SourceGraphic" in2="BackgroundImageFix" result="shape"/>
<feGaussianBlur stdDeviation="100" result="effect1_foregroundBlur_1158_2594"/>
</filter>
</defs>
</svg>
