<svg width="28" height="28" viewBox="0 0 28 28" fill="none" xmlns="http://www.w3.org/2000/svg">
<g clip-path="url(#clip0_3087_8467)">
<path d="M21.0001 7.00016H18.6667C18.6667 4.42183 16.5784 2.3335 14.0001 2.3335C11.4217 2.3335 9.33342 4.42183 9.33342 7.00016H7.00008C5.71675 7.00016 4.66675 8.05016 4.66675 9.3335V23.3335C4.66675 24.6168 5.71675 25.6668 7.00008 25.6668H21.0001C22.2834 25.6668 23.3334 24.6168 23.3334 23.3335V9.3335C23.3334 8.05016 22.2834 7.00016 21.0001 7.00016ZM11.6667 11.6668C11.6667 12.3085 11.1417 12.8335 10.5001 12.8335C9.85842 12.8335 9.33342 12.3085 9.33342 11.6668V9.3335H11.6667V11.6668ZM14.0001 4.66683C15.2834 4.66683 16.3334 5.71683 16.3334 7.00016H11.6667C11.6667 5.71683 12.7167 4.66683 14.0001 4.66683ZM18.6667 11.6668C18.6667 12.3085 18.1417 12.8335 17.5001 12.8335C16.8584 12.8335 16.3334 12.3085 16.3334 11.6668V9.3335H18.6667V11.6668Z" fill="#EB1212"/>
</g>
<defs>
<clipPath id="clip0_3087_8467">
<rect width="28" height="28" fill="white"/>
</clipPath>
</defs>
</svg>
